<svg width="24" height="24" viewBox="0 0 24 24" fill="none" xmlns="http://www.w3.org/2000/svg">
<path d="M12 12L14.5 14M12 12V21V12ZM12 12L9.5 14L12 12Z" stroke="black" stroke-width="2" stroke-linecap="round" stroke-linejoin="round"/>
<path d="M5.03421 9.11719C4.08842 9.35518 3.26208 9.93035 2.71046 10.7346C2.15883 11.5389 1.91989 12.5169 2.03851 13.485C2.15714 14.453 2.62517 15.3444 3.35467 15.9917C4.08417 16.639 5.02494 16.9976 6.00021 17.0002H7.00021" stroke="black" stroke-width="2" stroke-linecap="round" stroke-linejoin="round"/>
<path d="M15.8306 7.13772C15.4889 5.78429 14.6452 4.61146 13.4708 3.85698C12.2963 3.10249 10.8789 2.82281 9.5059 3.07462C8.13289 3.32643 6.90699 4.0909 6.07671 5.21306C5.24643 6.33521 4.87391 7.73109 5.03465 9.11772C5.03465 9.11772 5.18765 9.99972 5.50065 10.4997" stroke="black" stroke-width="2" stroke-linecap="round" stroke-linejoin="round"/>
<path d="M17 17C17.706 16.9995 18.404 16.8495 19.0479 16.5599C19.6917 16.2702 20.267 15.8475 20.7357 15.3195C21.2045 14.7915 21.5561 14.1702 21.7674 13.4965C21.9787 12.8229 22.045 12.1121 21.9618 11.4109C21.8786 10.7098 21.6479 10.0343 21.2848 9.42874C20.9217 8.82321 20.4345 8.30145 19.8552 7.89778C19.276 7.49412 18.6178 7.21772 17.924 7.08676C17.2302 6.9558 16.5166 6.97327 15.83 7.138L14.5 7.5" stroke="black" stroke-width="2" stroke-linecap="round" stroke-linejoin="round"/>
</svg>
