<svg width="24" height="24" viewBox="0 0 24 24" fill="none" xmlns="http://www.w3.org/2000/svg">
<path d="M12 16.5C12.1812 16.5 12.3563 16.5656 12.4929 16.6848C12.6295 16.8039 12.7183 16.9684 12.743 17.148L12.75 17.25V19.438L13.47 18.72C13.597 18.593 13.7653 18.5158 13.9444 18.5024C14.1235 18.489 14.3015 18.5403 14.446 18.647L14.53 18.72C14.657 18.847 14.7342 19.0153 14.7476 19.1945C14.761 19.3736 14.7097 19.5515 14.603 19.696L14.53 19.78L12.53 21.78L12.492 21.816L12.42 21.871L12.325 21.926L12.239 21.961L12.136 21.987L12.052 21.998H11.949L11.829 21.98L11.761 21.96L11.702 21.938L11.632 21.903L11.58 21.871L11.549 21.849C11.5207 21.8279 11.494 21.8048 11.469 21.78L9.46898 19.78C9.33478 19.6462 9.25623 19.4665 9.24911 19.2771C9.24199 19.0877 9.30683 18.9027 9.43059 18.7592C9.55435 18.6156 9.72786 18.5243 9.91624 18.5035C10.1046 18.4827 10.2939 18.5339 10.446 18.647L10.53 18.72L11.25 19.439V17.249C11.2502 17.0679 11.316 16.8931 11.4351 16.7567C11.5542 16.6203 11.7186 16.5316 11.898 16.507L12 16.5ZM12 9C12.7956 9 13.5587 9.31607 14.1213 9.87868C14.6839 10.4413 15 11.2044 15 12C15 12.7956 14.6839 13.5587 14.1213 14.1213C13.5587 14.6839 12.7956 15 12 15C11.2043 15 10.4413 14.6839 9.87866 14.1213C9.31605 13.5587 8.99998 12.7956 8.99998 12C8.99998 11.2044 9.31605 10.4413 9.87866 9.87868C10.4413 9.31607 11.2043 9 12 9ZM18.72 9.47C18.847 9.34298 19.0153 9.26575 19.1944 9.25236C19.3735 9.23896 19.5515 9.29029 19.696 9.397L19.78 9.469L21.78 11.469L21.816 11.508L21.872 11.58L21.926 11.675L21.961 11.761L21.988 11.864L21.998 11.948V12.051L21.98 12.171L21.961 12.239L21.939 12.298L21.903 12.368L21.871 12.42L21.844 12.458L21.78 12.53L19.78 14.53C19.646 14.663 19.4668 14.7405 19.2781 14.7471C19.0895 14.7538 18.9052 14.689 18.7622 14.5658C18.6192 14.4426 18.5279 14.27 18.5065 14.0825C18.4852 13.8949 18.5353 13.7062 18.647 13.554L18.72 13.469L19.438 12.749H17.25C17.0689 12.749 16.8939 12.6835 16.7573 12.5646C16.6208 12.4457 16.5318 12.2814 16.507 12.102L16.5 12C16.5 11.8188 16.5656 11.6437 16.6847 11.5071C16.8039 11.3705 16.9684 11.2816 17.148 11.257L17.25 11.25H19.44L18.72 10.53C18.593 10.403 18.5157 10.2347 18.5023 10.0555C18.4889 9.87644 18.5403 9.69847 18.647 9.554L18.72 9.469V9.47ZM4.21998 9.47C4.35398 9.33704 4.53319 9.25951 4.72184 9.25286C4.91049 9.24622 5.09471 9.31096 5.23773 9.43416C5.38075 9.55736 5.47205 9.72996 5.49341 9.91752C5.51478 10.1051 5.46463 10.2938 5.35298 10.446L5.27998 10.53L4.55998 11.25H6.74998C6.93121 11.25 7.10632 11.3156 7.24291 11.4348C7.3795 11.5539 7.46833 11.7184 7.49298 11.898L7.49998 12C7.49997 12.1812 7.43433 12.3563 7.31521 12.4929C7.19608 12.6295 7.03153 12.7184 6.85198 12.743L6.74998 12.75H4.56098L5.28098 13.47C5.40784 13.5971 5.48489 13.7655 5.4981 13.9446C5.51131 14.1237 5.45982 14.3016 5.35298 14.446L5.27998 14.53C5.15299 14.657 4.98463 14.7342 4.80553 14.7476C4.62642 14.761 4.44845 14.7097 4.30398 14.603L4.21998 14.53L2.21998 12.53L2.12898 12.42L2.07398 12.325L2.03898 12.239L2.01298 12.136L2.00098 12.046V11.953L2.01998 11.828L2.03998 11.761L2.06198 11.701L2.09698 11.631L2.12898 11.579L2.15098 11.549C2.17209 11.5208 2.19514 11.494 2.21998 11.469L4.21998 9.469V9.47ZM12 10.5C11.6022 10.5 11.2206 10.658 10.9393 10.9393C10.658 11.2206 10.5 11.6022 10.5 12C10.5 12.3978 10.658 12.7794 10.9393 13.0607C11.2206 13.342 11.6022 13.5 12 13.5C12.3978 13.5 12.7793 13.342 13.0606 13.0607C13.3419 12.7794 13.5 12.3978 13.5 12C13.5 11.6022 13.3419 11.2206 13.0606 10.9393C12.7793 10.658 12.3978 10.5 12 10.5ZM11.864 2.012L11.931 2.003L12.018 2L12.078 2.004L12.172 2.02L12.239 2.039L12.299 2.061L12.369 2.097L12.42 2.129L12.458 2.156L12.53 2.219L14.53 4.219C14.6645 4.35266 14.7434 4.53232 14.7508 4.72182C14.7582 4.91132 14.6936 5.09658 14.5698 5.24032C14.4461 5.38406 14.2726 5.47559 14.0841 5.4965C13.8956 5.51741 13.7062 5.46613 13.554 5.353L13.47 5.28L12.75 4.56V6.75C12.75 6.93124 12.6843 7.10634 12.5652 7.24293C12.4461 7.37952 12.2815 7.46835 12.102 7.493L12 7.5C11.8187 7.49999 11.6436 7.43436 11.507 7.31523C11.3705 7.19611 11.2816 7.03155 11.257 6.852L11.25 6.75V4.56L10.53 5.28C10.403 5.40702 10.2346 5.48425 10.0555 5.49764C9.87642 5.51104 9.69845 5.45971 9.55398 5.353L9.46998 5.28C9.34296 5.15301 9.26573 4.98466 9.25233 4.80555C9.23894 4.62644 9.29026 4.44847 9.39698 4.304L9.46998 4.219L11.47 2.219L11.58 2.129L11.675 2.074L11.761 2.039L11.864 2.012Z" fill="black"/>
</svg>
