<svg width="9" height="17" viewBox="0 0 9 17" fill="none" xmlns="http://www.w3.org/2000/svg">
<path d="M1.32254 16.4975C1.04778 16.498 0.781502 16.4023 0.569937 16.227C0.450864 16.1283 0.352436 16.007 0.28029 15.8702C0.208144 15.7334 0.163698 15.5837 0.149498 15.4297C0.135297 15.2757 0.151622 15.1204 0.197535 14.9727C0.243449 14.8249 0.318049 14.6878 0.417065 14.5689L5.68525 8.26592L0.605216 1.95115C0.507536 1.83087 0.43459 1.69247 0.390573 1.5439C0.346556 1.39533 0.332334 1.23953 0.348726 1.08545C0.365118 0.931371 0.411798 0.782049 0.486087 0.646068C0.560375 0.510087 0.660806 0.390128 0.781606 0.293087C0.903275 0.186034 1.04576 0.105285 1.20011 0.055909C1.35447 0.00653262 1.51737 -0.0104052 1.67858 0.00615772C1.83979 0.0227206 1.99584 0.0724271 2.13693 0.152158C2.27802 0.231888 2.40111 0.339921 2.49847 0.469477L8.17823 7.52508C8.35119 7.7355 8.44574 7.99943 8.44574 8.2718C8.44574 8.54418 8.35119 8.80811 8.17823 9.01852L2.29856 16.0741C2.18059 16.2164 2.03074 16.3289 1.86116 16.4025C1.69158 16.476 1.50705 16.5086 1.32254 16.4975Z" fill="black"/>
</svg>
