<svg width="23" height="22" viewBox="0 0 23 22" fill="none" xmlns="http://www.w3.org/2000/svg">
<path d="M2.53726 21.7421C2.53726 21.7421 0.762695 21.7421 0.762695 19.9675C0.762695 18.193 2.53726 12.8692 11.4101 12.8692C20.283 12.8692 22.0575 18.193 22.0575 19.9675C22.0575 21.7421 20.283 21.7421 20.283 21.7421H2.53726ZM11.4101 11.0947C12.822 11.0947 14.1762 10.5338 15.1745 9.5354C16.1729 8.53701 16.7338 7.18291 16.7338 5.77097C16.7338 4.35904 16.1729 3.00493 15.1745 2.00654C14.1762 1.00815 12.822 0.447266 11.4101 0.447266C9.99817 0.447266 8.64407 1.00815 7.64568 2.00654C6.64729 3.00493 6.0864 4.35904 6.0864 5.77097C6.0864 7.18291 6.64729 8.53701 7.64568 9.5354C8.64407 10.5338 9.99817 11.0947 11.4101 11.0947Z" fill="#CE1212"/>
</svg>
