<svg width="13" height="12" viewBox="0 0 13 12" fill="none" xmlns="http://www.w3.org/2000/svg">
<path d="M4.94383 4.12699L6.55489 0.935124C6.58583 0.870913 6.63418 0.81668 6.69443 0.778599C6.75468 0.740518 6.82441 0.72012 6.89569 0.719727C7.03068 0.719727 7.16568 0.79128 7.2387 0.935124L8.84976 4.12699L12.4628 4.6404C12.5529 4.65456 12.6353 4.69935 12.6962 4.76721C12.7571 4.83508 12.7927 4.92186 12.797 5.01292C12.8021 5.07355 12.7935 5.13456 12.7718 5.19139C12.7501 5.24823 12.7158 5.29943 12.6716 5.34118L10.0728 7.81678L10.6851 11.3059C10.7426 11.6327 10.4195 11.8887 10.1348 11.7426L6.89569 10.0785L3.65809 11.7426C3.62422 11.7602 3.58792 11.7726 3.55039 11.7795C3.29811 11.8238 3.05763 11.5921 3.10779 11.3059L3.72005 7.81678L1.122 5.34118C1.08161 5.30297 1.04951 5.25687 1.02768 5.20573C1.00586 5.15459 0.994774 5.09951 0.995125 5.04391C0.995164 4.9653 1.01686 4.88822 1.05783 4.82113C1.08689 4.7725 1.1265 4.73101 1.17374 4.69973C1.22098 4.66845 1.27464 4.64818 1.33076 4.6404L4.94383 4.12699ZM6.89569 9.22277C6.95523 9.22252 7.01395 9.23669 7.06683 9.26408L9.78585 10.6612L9.27392 7.74228C9.26183 7.67515 9.26641 7.60607 9.28724 7.54112C9.30808 7.47617 9.34453 7.41733 9.39342 7.36976L11.5378 5.32643L8.54879 4.90154C8.4869 4.89219 8.42819 4.86798 8.37771 4.83098C8.32722 4.79398 8.28645 4.74529 8.25889 4.68909L6.89643 1.99072L6.89569 1.99293V9.22203V9.22277Z" fill="black"/>
</svg>
