<svg width="38" height="32" viewBox="0 0 38 32" fill="none" xmlns="http://www.w3.org/2000/svg">
<path d="M15.5591 0C21.4253 0 24.9121 0.1875 26.0194 0.5625C26.3256 0.6875 26.7261 0.90625 27.2209 1.21875C27.5743 1.46875 28.2163 1.67188 29.1469 1.82812C30.0774 1.98438 31.6265 2.125 33.7939 2.25C33.9824 2.27083 34.1532 2.3125 34.3063 2.375C34.4594 2.4375 34.5831 2.52083 34.6774 2.625C34.7245 2.6875 34.8187 2.82292 34.9601 3.03125C35.1014 3.23958 35.3017 3.58854 35.5608 4.07812C35.82 4.56771 36.0615 5.10417 36.2853 5.6875C36.5091 6.27083 36.7035 7 36.8684 7.875C37.0333 8.75 37.1157 9.63542 37.1157 10.5312C37.1157 13.5521 36.5385 15.8854 35.3841 17.5312C35.3135 17.6146 35.2251 17.6927 35.1191 17.7656C35.0131 17.8385 34.9012 17.8958 34.7834 17.9375C34.6656 17.9792 34.536 18 34.3947 18C32.4157 18 30.2424 19.0625 27.8747 21.1875C25.507 23.3125 23.4632 26.1979 21.7434 29.8438C21.3193 30.6979 21.0248 31.2083 20.8599 31.375C20.4123 31.7708 19.7055 31.9792 18.7396 32C18.1035 32 17.4615 31.8229 16.8136 31.4688C16.1657 31.1146 15.6533 30.6667 15.2764 30.125C14.8288 29.4792 14.5696 28.5521 14.4989 27.3438C14.4283 26.1354 14.4695 25.0104 14.6226 23.9688C14.7757 22.9271 14.9819 21.9271 15.241 20.9688C11.0004 20.9896 8.14973 21 6.68906 21C5.29906 21 4.17411 20.6667 3.3142 20C2.45429 19.3333 2.01256 18.4583 1.989 17.375C1.96544 16.4583 2.07146 15.7604 2.30705 15.2812C1.36468 14.4688 0.881717 13.6667 0.858158 12.875C0.834599 11.8958 1.37646 10.8958 2.48374 9.875C2.46018 9.83333 2.41306 9.73438 2.34239 9.57812C2.27171 9.42188 2.2187 9.29167 2.18336 9.1875C2.14802 9.08333 2.11857 8.95312 2.09502 8.79688C2.07146 8.64062 2.05968 8.48958 2.05968 8.34375C2.10679 7.19792 2.86069 6.17708 4.32136 5.28125C4.20356 4.59375 4.21534 3.97917 4.3567 3.4375C4.92212 1.14583 8.65625 0 15.5591 0ZM33.1931 4.28125C29.3294 4.01042 26.8793 3.53125 25.8427 2.84375L25.7367 2.75C25.5246 2.625 25.3538 2.53125 25.2242 2.46875C25.0947 2.40625 24.8355 2.33854 24.4468 2.26562C24.0581 2.19271 23.5221 2.14062 22.8389 2.10938C22.1557 2.07812 21.2251 2.05208 20.0471 2.03125C18.8692 2.01042 17.3731 2 15.5591 2C9.85777 2 6.85397 2.625 6.5477 3.875C6.45346 4.33333 6.67728 4.80208 7.21914 5.28125C7.33693 5.53125 7.33693 5.78646 7.21914 6.04688C7.10134 6.30729 6.91287 6.48958 6.65372 6.59375H6.61838C6.50058 6.63542 6.35923 6.6875 6.19431 6.75C6.0294 6.8125 5.78792 6.92708 5.46987 7.09375C5.15182 7.26042 4.88678 7.46354 4.67475 7.70312C4.46271 7.94271 4.34492 8.1875 4.32136 8.4375C4.32136 8.5 4.32725 8.56771 4.33903 8.64062C4.35081 8.71354 4.36259 8.78125 4.37437 8.84375C4.38615 8.90625 4.40971 8.96875 4.44504 9.03125L4.53339 9.1875L4.62174 9.3125L4.71009 9.42188L4.78076 9.5L4.83377 9.5625L4.85144 9.59375C5.01636 9.80208 5.06936 10.0417 5.01047 10.3125C4.95157 10.5833 4.80432 10.8021 4.56873 10.9688C4.42738 11.0312 4.27424 11.1198 4.10933 11.2344C3.94441 11.349 3.73827 11.5625 3.4909 11.875C3.24353 12.1875 3.11984 12.5 3.11984 12.8125C3.1434 13.3333 3.59102 13.8229 4.46271 14.2812C4.76898 14.4271 4.95746 14.6562 5.02813 14.9688C5.05169 15.1146 5.0458 15.2552 5.01047 15.3906C4.97513 15.526 4.91034 15.6562 4.8161 15.7812C4.76898 15.8229 4.71598 15.8958 4.65708 16C4.59818 16.1042 4.51572 16.2969 4.40971 16.5781C4.30369 16.8594 4.25068 17.1146 4.25068 17.3438C4.25068 17.4896 4.27424 17.6302 4.32136 17.7656C4.36848 17.901 4.42738 18.0208 4.49805 18.125C4.56873 18.2292 4.6453 18.3229 4.72775 18.4062C4.81021 18.4896 4.90445 18.5625 5.01047 18.625C5.11648 18.6875 5.2225 18.7396 5.32851 18.7812C5.43453 18.8229 5.54644 18.8594 5.66423 18.8906C5.78203 18.9219 5.88804 18.9427 5.98228 18.9531C6.07652 18.9635 6.17664 18.974 6.28266 18.9844C6.38868 18.9948 6.47113 19 6.53003 19H6.68906C10.2936 19 13.6861 18.9896 16.8666 18.9688C17.2671 18.9688 17.5852 19.125 17.8208 19.4375C18.0328 19.7083 18.0681 20.0208 17.9268 20.375C17.3378 21.875 16.955 23.4896 16.7783 25.2188C16.6016 26.9479 16.7488 28.2396 17.22 29.0938C17.2436 29.1354 17.2966 29.224 17.379 29.3594C17.4615 29.4948 17.5263 29.5833 17.5734 29.625C17.6205 29.6667 17.6971 29.724 17.8031 29.7969C17.9091 29.8698 18.0387 29.9219 18.1918 29.9531C18.345 29.9844 18.5275 30 18.7396 30C19.0459 30 19.3521 29.6875 19.6584 29.0625C21.4724 25.1875 23.6635 22.099 26.2314 19.7969C28.7994 17.4948 31.2848 16.2396 33.6879 16.0312C34.4653 14.4896 34.8541 12.6562 34.8541 10.5312C34.8541 9.59375 34.7481 8.66146 34.536 7.73438C34.324 6.80729 34.1061 6.07812 33.8822 5.54688C33.6584 5.01562 33.4287 4.59375 33.1931 4.28125Z" fill="black"/>
</svg>
