<svg width="29" height="29" viewBox="0 0 29 29" fill="none" xmlns="http://www.w3.org/2000/svg">
<path d="M25.379 25.379C25.379 26.944 24.1242 28.1989 22.5591 28.1989C21.8112 28.1989 21.094 27.9018 20.5652 27.373C20.0363 26.8441 19.7392 26.1269 19.7392 25.379C19.7392 23.814 20.9941 22.5591 22.5591 22.5591C23.307 22.5591 24.0242 22.8562 24.5531 23.385C25.0819 23.9139 25.379 24.6311 25.379 25.379ZM8.45967 22.5591C6.89463 22.5591 5.63978 23.814 5.63978 25.379C5.63978 26.1269 5.93687 26.8441 6.46571 27.373C6.99454 27.9018 7.71179 28.1989 8.45967 28.1989C10.0247 28.1989 11.2796 26.944 11.2796 25.379C11.2796 23.814 10.0247 22.5591 8.45967 22.5591ZM8.74166 17.8076L8.69936 17.9768C8.69936 18.1742 8.85445 18.3293 9.05185 18.3293H25.379V21.1492H8.45967C7.71179 21.1492 6.99454 20.8521 6.46571 20.3232C5.93687 19.7944 5.63978 19.0772 5.63978 18.3293C5.63978 17.8358 5.76667 17.3705 5.97817 16.9757L7.89569 13.5214L2.81989 2.81989H0V0H4.61052L5.93587 2.81989H26.7889C27.5644 2.81989 28.1989 3.45436 28.1989 4.22983C28.1989 4.46952 28.1284 4.70922 28.0297 4.93481L22.9821 14.0571C22.5027 14.9172 21.5722 15.5094 20.5147 15.5094H10.0106L8.74166 17.8076ZM10.5746 12.6895H12.6895V9.86961H9.24924L10.5746 12.6895ZM14.0994 9.86961V12.6895H18.3293V9.86961H14.0994ZM18.3293 8.45967V5.63978H14.0994V8.45967H18.3293ZM22.7142 9.86961H19.7392V12.6895H21.1492L22.7142 9.86961ZM25.0688 5.63978H19.7392V8.45967H23.5038L25.0688 5.63978ZM7.24712 5.63978L8.57246 8.45967H12.6895V5.63978H7.24712Z" fill="white"/>
</svg>
