<svg width="10" height="17" viewBox="0 0 10 17" fill="none" xmlns="http://www.w3.org/2000/svg">
<path d="M2.09207 16.4975C1.81731 16.498 1.55103 16.4023 1.33947 16.227C1.22039 16.1283 1.12197 16.007 1.04982 15.8702C0.977675 15.7334 0.933229 15.5837 0.919029 15.4297C0.904829 15.2757 0.921153 15.1204 0.967067 14.9727C1.01298 14.8249 1.08758 14.6878 1.1866 14.5689L6.45478 8.26592L1.37475 1.95115C1.27707 1.83087 1.20412 1.69247 1.1601 1.5439C1.11609 1.39533 1.10187 1.23953 1.11826 1.08545C1.13465 0.931371 1.18133 0.782049 1.25562 0.646068C1.32991 0.510087 1.43034 0.390128 1.55114 0.293087C1.67281 0.186034 1.81529 0.105285 1.96964 0.055909C2.124 0.00653262 2.2869 -0.0104052 2.44811 0.00615772C2.60932 0.0227206 2.76537 0.0724271 2.90646 0.152158C3.04755 0.231888 3.17064 0.339921 3.268 0.469477L8.94776 7.52508C9.12072 7.7355 9.21528 7.99943 9.21528 8.2718C9.21528 8.54418 9.12072 8.80811 8.94776 9.01852L3.06809 16.0741C2.95013 16.2164 2.80027 16.3289 2.63069 16.4025C2.46111 16.476 2.27658 16.5086 2.09207 16.4975Z" fill="black"/>
</svg>
