<svg width="36" height="33" viewBox="0 0 36 33" fill="none" xmlns="http://www.w3.org/2000/svg">
<path d="M18.0193 5.4815L18.4418 6.15072L18.8647 5.48186C20.3099 3.19663 22.0515 1.83172 23.8268 1.19527C25.6023 0.558796 27.4447 0.638431 29.1194 1.29826C32.4717 2.61902 35.1783 6.28452 35.1783 11.2108C35.1783 12.9929 34.2634 15.0967 32.7798 17.3205C31.3058 19.53 29.316 21.7914 27.2655 23.8751C25.2171 25.9567 23.1198 27.8492 21.4378 29.3221C20.8335 29.8513 20.2845 30.3248 19.8097 30.7344C19.6232 30.8953 19.4481 31.0463 19.2856 31.187C18.9508 31.4767 18.6625 31.7283 18.4398 31.9306C18.2092 31.7258 17.9086 31.4721 17.5598 31.1811C17.3261 30.9861 17.0682 30.7725 16.7885 30.5407C16.3488 30.1763 15.8549 29.7671 15.3155 29.3151C13.5572 27.8416 11.358 25.9487 9.20731 23.8666C7.05442 21.7823 4.96293 19.5205 3.41297 17.3108C1.85201 15.0854 0.892578 12.9853 0.892578 11.2108C0.892578 6.26456 3.78713 2.59185 7.35254 1.27272C10.8908 -0.0363866 15.1573 0.947297 18.0193 5.4815Z" stroke="black"/>
</svg>
